<svg id="copy-file" xmlns="http://www.w3.org/2000/svg" width="52.399" height="60.405" viewBox="0 0 52.399 60.405">
  <g id="Group_97" data-name="Group 97">
    <path id="Path_172" data-name="Path 172" d="M69.993,0h-25a2.19,2.19,0,0,0-2.183,2.183v9.461H33.35a2.19,2.19,0,0,0-2.183,2.183V58.221A2.19,2.19,0,0,0,33.35,60.4H70.1a2.19,2.19,0,0,0,2.183-2.183V48.4h9.1a2.19,2.19,0,0,0,2.183-2.183V13.646a2.145,2.145,0,0,0-.619-1.528L71.558.655A2.116,2.116,0,0,0,69.993,0ZM67.919,56.038H35.534V16.011h7.278v30.2A2.19,2.19,0,0,0,44.995,48.4H67.919v7.641ZM47.178,44.03V4.367H66.1V16.739a2.19,2.19,0,0,0,2.183,2.183H79.2V44.03ZM79.2,14.555H70.466V5.749L79.2,14.555Z" transform="translate(-31.167 0)" fill="#fff"/>
  </g>
</svg>
