<svg id="options-gear" xmlns="http://www.w3.org/2000/svg" width="58.454" height="58.19" viewBox="0 0 58.454 58.19">
  <g id="Group_35" data-name="Group 35">
    <path id="Path_59" data-name="Path 59" d="M4.156,36.358l2.721,1.247A2.394,2.394,0,0,1,8.124,40.59l-1.058,2.8a6.709,6.709,0,0,0,.793,6.31,6.823,6.823,0,0,0,5.668,2.985,6.893,6.893,0,0,0,2.456-.453l2.8-1.058a2.033,2.033,0,0,1,.831-.151,2.352,2.352,0,0,1,2.154,1.4l1.247,2.721a6.887,6.887,0,0,0,12.545,0L36.8,52.417a2.373,2.373,0,0,1,2.154-1.4,2.153,2.153,0,0,1,.831.151l2.8,1.1a6.938,6.938,0,0,0,2.456.491h0a7.061,7.061,0,0,0,5.668-3.023,6.9,6.9,0,0,0,.793-6.348l-1.058-2.8a2.394,2.394,0,0,1,1.247-2.985l2.721-1.247a6.887,6.887,0,0,0,0-12.545L51.69,22.567a2.394,2.394,0,0,1-1.247-2.985l1.058-2.8a6.709,6.709,0,0,0-.793-6.31A6.823,6.823,0,0,0,45.04,7.49a6.893,6.893,0,0,0-2.456.453L39.788,9a2.033,2.033,0,0,1-.831.151,2.352,2.352,0,0,1-2.154-1.4L35.556,5.034A6.834,6.834,0,0,0,29.284.991,7.03,7.03,0,0,0,22.9,5.072L21.651,7.792A2.374,2.374,0,0,1,19.5,9.19a2.154,2.154,0,0,1-.831-.151l-2.8-1.058a6.893,6.893,0,0,0-2.456-.453,7.024,7.024,0,0,0-5.668,2.985,6.842,6.842,0,0,0-.793,6.31l1.058,2.8A2.394,2.394,0,0,1,6.763,22.6L4.043,23.851a6.82,6.82,0,0,0,.113,12.507Zm1.851-8.426,2.721-1.247a6.9,6.9,0,0,0,3.59-8.691L11.26,15.2a2.255,2.255,0,0,1,.264-2.154,2.307,2.307,0,0,1,2.8-.869l2.8,1.058a6.692,6.692,0,0,0,2.418.453h0a6.937,6.937,0,0,0,6.272-4.043l1.247-2.721a2.318,2.318,0,0,1,2.154-1.4,2.351,2.351,0,0,1,2.154,1.4l1.247,2.721a6.937,6.937,0,0,0,6.272,4.043,6.692,6.692,0,0,0,2.418-.453l2.8-1.058a2.421,2.421,0,0,1,2.8.869,2.255,2.255,0,0,1,.264,2.154l-1.058,2.8a6.936,6.936,0,0,0,3.59,8.691l2.721,1.247a2.318,2.318,0,0,1,1.4,2.154,2.351,2.351,0,0,1-1.4,2.154l-2.721,1.247a6.9,6.9,0,0,0-3.59,8.691l1.058,2.8a2.255,2.255,0,0,1-.264,2.154A2.307,2.307,0,0,1,44.1,48l-2.8-1.058a6.692,6.692,0,0,0-2.418-.453,6.937,6.937,0,0,0-6.272,4.043l-1.247,2.721a2.318,2.318,0,0,1-2.154,1.4,2.351,2.351,0,0,1-2.154-1.4l-1.247-2.721a6.937,6.937,0,0,0-6.272-4.043,6.692,6.692,0,0,0-2.418.453L14.321,48a2.421,2.421,0,0,1-2.8-.869,2.255,2.255,0,0,1-.264-2.154l1.058-2.8a6.936,6.936,0,0,0-3.59-8.691L6.008,32.24a2.318,2.318,0,0,1-1.4-2.154A2.351,2.351,0,0,1,6.008,27.932Z" transform="translate(0 -0.991)" fill="#fff"/>
    <path id="Path_60" data-name="Path 60" d="M154.89,165.139a9.824,9.824,0,1,0-9.824-9.824A9.853,9.853,0,0,0,154.89,165.139Zm0-15.114a5.29,5.29,0,1,1-5.29,5.29A5.306,5.306,0,0,1,154.89,150.025Z" transform="translate(-125.72 -126.22)" fill="#fff"/>
  </g>
</svg>
