<svg id="sort" xmlns="http://www.w3.org/2000/svg" width="48.742" height="55.43" viewBox="0 0 48.742 55.43">
  <g id="Group_12" data-name="Group 12">
    <path id="Path_20" data-name="Path 20" d="M42.191,44.286a2.266,2.266,0,0,0,2.259-2.259V2.269A2.248,2.248,0,0,0,40.835.461L26.077,11.53a2.259,2.259,0,1,0,2.711,3.614L39.932,6.787v35.24A2.266,2.266,0,0,0,42.191,44.286Z" transform="translate(-25.165 0)" fill="#fff"/>
    <path id="Path_21" data-name="Path 21" d="M249.048,86.771a2.266,2.266,0,0,0-2.259,2.259v39.382a2.32,2.32,0,0,0,1.242,2.033,2.486,2.486,0,0,0,1.017.226,2.256,2.256,0,0,0,1.355-.452l14.759-10.881a2.263,2.263,0,1,0-2.673-3.652l-11.182,8.245V89.03A2.266,2.266,0,0,0,249.048,86.771Z" transform="translate(-217.339 -75.241)" fill="#fff"/>
  </g>
</svg>
