<svg id="voice-recording" xmlns="http://www.w3.org/2000/svg" width="47.383" height="69.89" viewBox="0 0 47.383 69.89">
  <g id="Group_6" data-name="Group 6">
    <path id="Path_9" data-name="Path 9" d="M193.133,10.5A10.5,10.5,0,0,0,182.63,0h-.711a10.5,10.5,0,0,0-10.5,10.5V34.511a10.5,10.5,0,0,0,10.5,10.5h.711a10.5,10.5,0,0,0,10.5-10.5ZM188.4,34.511a5.747,5.747,0,0,1-5.765,5.765h-.711a5.747,5.747,0,0,1-5.765-5.765V10.5a5.747,5.747,0,0,1,5.765-5.765h.711A5.747,5.747,0,0,1,188.4,10.5Z" transform="translate(-158.781)" fill="#fff"/>
    <path id="Path_10" data-name="Path 10" d="M83.119,200.6a2.376,2.376,0,0,0-2.369,2.369c0,12.951,8.963,23.731,20.533,25.389V237.8H90.621a2.369,2.369,0,1,0,0,4.738h27.64a2.369,2.369,0,1,0,0-4.738H106.021v-9.24c12.32-.869,22.112-12,22.112-25.548a2.369,2.369,0,0,0-4.738,0c0,11.53-8.49,20.888-18.953,20.888s-18.953-9.4-18.953-20.928A2.376,2.376,0,0,0,83.119,200.6Z" transform="translate(-80.75 -172.644)" fill="#fff"/>
  </g>
</svg>
