<svg id="x" xmlns="http://www.w3.org/2000/svg" width="33.382" height="33.426" viewBox="0 0 33.382 33.426">
  <path id="Path_191" data-name="Path 191" d="M128.991,160.9a2.311,2.311,0,0,0,1.639.7,2.246,2.246,0,0,0,1.639-.7l12.721-12.721L157.71,160.9a2.311,2.311,0,0,0,1.639.7,2.246,2.246,0,0,0,1.639-.7,2.379,2.379,0,0,0,0-3.317L148.306,144.9l12.682-12.721a2.379,2.379,0,0,0,0-3.317,2.343,2.343,0,0,0-3.317,0L144.99,141.581,132.269,128.9a2.345,2.345,0,0,0-3.317,3.317L141.673,144.9l-12.682,12.721A2.263,2.263,0,0,0,128.991,160.9Z" transform="translate(-128.279 -128.173)" fill="#fff"/>
</svg>
